PathFileType	4	(X/Y/Z)	/Users/niels/Desktop/University/Third Semester/Perception and Action/Exam/Gymnastics Motion Tracking/Code for Gym Tracking/Analyzed Data/Webcam_Backflip/id7_3_baseline_Sports2D/id7_3_baseline_Sports2D_px_person00.trc
DataRate	CameraRate	NumFrames	NumMarkers	Units	OrigDataRate	OrigDataStartFrame	OrigNumFrames
29.810126582278482	29.810126582278482	9	22	m	29.810126582278482	98	158
Frame#	Time	Hip			RHip			RKnee			RAnkle			RBigToe			RSmallToe			RHeel			LHip			LKnee			LAnkle			LBigToe			LSmallToe			LHeel			Neck			Head			Nose			RShoulder			RElbow			RWrist			LShoulder			LElbow			LWrist		
		X1	Y1	Z1	X2	Y2	Z2	X3	Y3	Z3	X4	Y4	Z4	X5	Y5	Z5	X6	Y6	Z6	X7	Y7	Z7	X8	Y8	Z8	X9	Y9	Z9	X10	Y10	Z10	X11	Y11	Z11	X12	Y12	Z12	X13	Y13	Z13	X14	Y14	Z14	X15	Y15	Z15	X16	Y16	Z16	X17	Y17	Z17	X18	Y18	Z18	X19	Y19	Z19	X20	Y20	Z20	X21	Y21	Z21	X22	Y22	Z22
98	3.2874734607218685	0.9446271718535257	-0.459666139101592	0.0	0.9480238048865164	-0.45999480500095885	0.0	0.9513400011517661	-0.5794232134277449	0.0	0.9401712871510897	-0.6895671016062542	0.0	0.9689940469278376	-0.7256476484904444	0.0	0.9587372860246923	-0.7271673979273019	0.0	0.9323307747957008	-0.7031212623477322	0.0	0.9400406761132434	-0.4572751943871393	0.0	0.948129710029025	-0.5774166644076177	0.0	0.937690949705142	-0.6825322795297795	0.0	0.9702453301411114	-0.7157782223943238	0.0	0.9659276085676343	-0.7114293049637898	0.0	0.9261296446645105	-0.6964925353451252	0.0	0.9467463874340123	-0.31730561160661186	0.0	0.9623730479956766	-0.24460557284464837	0.0	0.9748428785357304	-0.2811608888685338	0.0	0.9497756707290079	-0.33269561427324346	0.0	0.929842835078298	-0.37609686087626015	0.0	0.9195797266256888	-0.4222972560134377	0.0	0.9333559915755727	-0.3281709943709922	0.0	0.9012505681511188	-0.3499091631192923	0.0	0.9119611124750442	-0.33701221709981266	0.0
99	3.3210191082802547	0.9472393307201201	-0.46519089168883415	0.0	0.9505544426018022	-0.465227600571522	0.0	0.9539860131392744	-0.5844835670324333	0.0	0.9463193328360285	-0.6950466628345242	0.0	0.9755717540578235	-0.7311181309539478	0.0	0.9653926292551673	-0.7326246030541064	0.0	0.9386189599563988	-0.7092251995526517	0.0	0.9428208087668946	-0.4623379681520419	0.0	0.9510003338077266	-0.5824700841553094	0.0	0.9438348439940796	-0.6878519144055572	0.0	0.9762102800091477	-0.7212262976247844	0.0	0.9718294922751581	-0.7167720904353804	0.0	0.9328546155343698	-0.7022941294768035	0.0	0.9486830753551108	-0.3213119016655225	0.0	0.9641904671361293	-0.24920391501500894	0.0	0.9771046609540528	-0.2854359844783495	0.0	0.952084327421338	-0.3374236425078324	0.0	0.9296785192101765	-0.3842969058698742	0.0	0.915427738528999	-0.4410888321177956	0.0	0.9360356438674804	-0.33272757246932516	0.0	0.901944004912289	-0.35306731995232954	0.0	0.9083616723442515	-0.3427411723665553	0.0
100	3.3545647558386413	0.9499953055443212	-0.47512714088464136	0.0	0.9532567289187537	-0.47513382140499416	0.0	0.9566688201275444	-0.5936949408298065	0.0	0.9518004566766064	-0.7046229291371126	0.0	0.9811437258967797	-0.7406405680166537	0.0	0.9712809638541803	-0.7420649811836165	0.0	0.944286405412506	-0.7196521697048088	0.0	0.9454932571237126	-0.4721175368152126	0.0	0.9535663476059142	-0.5915749256982399	0.0	0.9491087944486515	-0.6971699272789613	0.0	0.9809256955889121	-0.7306180094725782	0.0	0.9763770522949033	-0.726270721832922	0.0	0.9383932444889871	-0.7121005150183904	0.0	0.9503276281091558	-0.32947425217199766	0.0	0.9656597260066997	-0.2577723793425741	0.0	0.9794119986265923	-0.2938112127935731	0.0	0.9539050314283867	-0.3464245179535713	0.0	0.9291824566404217	-0.3970363649707911	0.0	0.9120326595709823	-0.4600830942880082	0.0	0.9384006193288141	-0.3416336641715389	0.0	0.9027957858726667	-0.36170615445463683	0.0	0.9051097024678005	-0.3560691042937768	0.0
101	3.3881104033970275	0.9526753758078625	-0.4891457127942798	0.0	0.9559174585016958	-0.48934980731966604	0.0	0.9593870187903002	-0.6068685575939854	0.0	0.956178579172508	-0.718016006256126	0.0	0.985402253951254	-0.7534205836714585	0.0	0.975895261772807	-0.7547418908816169	0.0	0.9487754763481978	-0.7339684433808505	0.0	0.9480840372062983	-0.48624279926509234	0.0	0.956011149538177	-0.6045182432160299	0.0	0.9532233384308798	-0.710202830208844	0.0	0.9842938763553725	-0.7432209705630413	0.0	0.9793800385130037	-0.7393275951412027	0.0	0.9423868160907366	-0.7256197569832157	0.0	0.9516917837802302	-0.3418793634922745	0.0	0.9669004658877609	-0.2703128642276252	0.0	0.98167100845384	-0.30625712716914555	0.0	0.955234151938386	-0.3595815252154306	0.0	0.9284853789403538	-0.4140673510595881	0.0	0.9093208689556772	-0.4801737264541437	0.0	0.9403888858741557	-0.3546823832920595	0.0	0.903679567769919	-0.3753463309022512	0.0	0.9023697079267398	-0.37661485688617874	0.0
102	3.421656050955414	0.9550774689747825	-0.5067814759670098	0.0	0.9583264245633031	-0.5073020781225476	0.0	0.9620960956310868	-0.6235942344324961	0.0	0.9589845745203666	-0.7346508919999678	0.0	0.9880278472815583	-0.7683892585608207	0.0	0.9787455535665324	-0.7696665767224449	0.0	0.9514895394386047	-0.751307316611419	0.0	0.950726178157617	-0.5041518111437626	0.0	0.9585425715013868	-0.6209512567043447	0.0	0.9559477613930092	-0.7264633288654723	0.0	0.9863169894763735	-0.758179864331816	0.0	0.9807935280949471	-0.7550411461421257	0.0	0.9445753428160949	-0.7422236393899758	0.0	0.9528508870285357	-0.3583133211558268	0.0	0.9680815929098817	-0.2866748975604717	0.0	0.9837747672275206	-0.3225153308833561	0.0	0.9560829394565199	-0.3766668612342957	0.0	0.9278397017009427	-0.43481366440966857	0.0	0.9073615140201255	-0.5019555902738939	0.0	0.9420538907581557	-0.3715038873861743	0.0	0.9045754567112827	-0.3934440239217865	0.0	0.9004337578731862	-0.40290881304060816	0.0
103	3.4552016985138003	0.9570903240184943	-0.5272817859433245	0.0	0.960336342977445	-0.5281354184158749	0.0	0.9646725693681987	-0.6430697189496692	0.0	0.9599507382503549	-0.7535267335773828	0.0	0.9888599566441201	-0.7843108117999126	0.0	0.9795879835807716	-0.7857096591244622	0.0	0.9521248775183822	-0.7703454596928221	0.0	0.9535270394714481	-0.5250182318387218	0.0	0.9612434394041207	-0.6401843586421666	0.0	0.9572125466730436	-0.7450989829914108	0.0	0.9871351822829256	-0.7744625169267035	0.0	0.9808431360390752	-0.7721623311090674	0.0	0.9449950572828091	-0.7607994145966082	0.0	0.953944828420597	-0.37804575766243403	0.0	0.9693123526677522	-0.3063137500635801	0.0	0.9856711784285204	-0.3419167850879	0.0	0.9564901749407857	-0.39709901414621995	0.0	0.9276024239925519	-0.4583825378990699	0.0	0.9064061356388027	-0.5254576778645369	0.0	0.9435278602502328	-0.39144221773067855	0.0	0.9057538922675371	-0.4154734444712812	0.0	0.8996240965179619	-0.43455137190242177	0.0
104	3.488747346072187	0.9586839345670299	-0.5494392224454259	0.0	0.9618166593596161	-0.5505684714125949	0.0	0.9668957336091452	-0.6640183616415476	0.0	0.9592022893684682	-0.7732704655335223	0.0	0.9880727479756087	-0.799949406349159	0.0	0.9785796639916926	-0.8017125367735116	0.0	0.9508910671001943	-0.7895190988875016	0.0	0.9563987968491795	-0.54754557820714	0.0	0.9639663764016374	-0.6610274375633552	0.0	0.9572138956612433	-0.7648167524769729	0.0	0.9870222560791674	-0.7908138778759556	0.0	0.9800050077444707	-0.7892193120831865	0.0	0.9440955107807149	-0.7798264559764201	0.0	0.9551243591232806	-0.3998369572199204	0.0	0.970550103793894	-0.3282110429363247	0.0	0.9873466013355957	-0.3633374121194056	0.0	0.9565280521163713	-0.419797540941489	0.0	0.9281446661140065	-0.48358336925167406	0.0	0.906923591472188	-0.5501302873704711	0.0	0.944928572251282	-0.4134527477050629	0.0	0.9077660449635364	-0.4408924829056435	0.0	0.9003445072242938	-0.4724384644953183	0.0
105	3.522292993630573	0.959859772978062	-0.5716769496743931	0.0	0.9626412527202544	-0.5729604492809625	0.0	0.9685106894368117	-0.6848856563735776	0.0	0.9571670651567561	-0.7923825067633284	0.0	0.9861027206032754	-0.8142944993692838	0.0	0.9762050280452881	-0.8166470628813923	0.0	0.9483811489637235	-0.8073494576817307	0.0	0.9590029020613902	-0.5700336125348603	0.0	0.966391520124422	-0.6819215773392568	0.0	0.9563561392610039	-0.7840564413341896	0.0	0.9863420715878785	-0.8059886790202356	0.0	0.9788639206193372	-0.8048540789028555	0.0	0.9425695222568148	-0.7977256914361245	0.0	0.9564436886493553	-0.4220929771706212	0.0	0.9716313206914433	-0.35093340759786673	0.0	0.9887591211283427	-0.38532772416633126	0.0	0.9562833142386478	-0.4432340211888842	0.0	0.9297104414220939	-0.5089683350794442	0.0	0.9095260449513893	-0.5749125200745182	0.0	0.9462768566998428	-0.43610802896668605	0.0	0.9110964998006281	-0.4687435724690936	0.0	0.9031727836716194	-0.5149486013343029	0.0
106	3.5558386411889598	0.9606103266089802	-0.5923464392061677	0.0	0.9627753573695594	-0.5936147402140254	0.0	0.9693563309201942	-0.7041131276633198	0.0	0.9543435163068585	-0.8094744631990451	0.0	0.9834255092144796	-0.8267139789240288	0.0	0.973057913390444	-0.829753367996311	0.0	0.945290948657633	-0.8226741854985384	0.0	0.9609128437695499	-0.590762426249515	0.0	0.9682325821386147	-0.7012370372007197	0.0	0.9550663234455793	-0.8013064631388106	0.0	0.9854917094500353	-0.8190950869106556	0.0	0.9779731524758446	-0.8181752098211739	0.0	0.9410709188673397	-0.8132658534378915	0.0	0.9578251955709555	-0.4430315027806957	0.0	0.9723677491037543	-0.37276872925436844	0.0	0.9897923061627324	-0.40627541804038275	0.0	0.9558473710897722	-0.465576696828089	0.0	0.9323125712611328	-0.5328698452478325	0.0	0.9147442268484954	-0.5983040902041282	0.0	0.9475505290202398	-0.45772980971255295	0.0	0.9158717623960086	-0.4972861825478189	0.0	0.9088394836441154	-0.5565117714200183	0.0
